<svg height="40" viewBox="0 0 102 40" width="102" xmlns="http://www.w3.org/2000/svg"><g fill="#fff" fill-rule="evenodd" transform=""><path d="m95.4576471 5.47945205h-84.175839l-4.81475644 29.04109585h84.17583904zm-88.82600147-5.47945205h95.29305337l-6.6316458 40h-95.2930532z" fill-rule="nonzero"/><path d="m14.6575786 8.76712329h11.943871c2.4348387 0 4.17429 2.00547941 3.7588417 4.50410961l-2.1865699 13.1506849c-.4209147 2.5315069-2.8272698 4.5369863-5.2621085 4.5369863h-11.943871zm8.135471 15.78082191 1.5633975-9.4027397c.1585263-.9534247-.3902097-1.6109589-1.3444033-1.6109589h-3.4219355l-2.0991071 12.6246575h3.4219355c.9541936 0 1.7215866-.6575342 1.8801129-1.6109589zm14.5896904-15.78082191h11.4174193c1.5464516 0 2.4244293 1.05205479 2.1675073 2.59726031l-2.8261416 16.9972602c-.2569219 1.5452055-1.4847508 2.5972603-3.0312024 2.5972603h-11.4174193c-1.5464516 0-2.4244293-1.0520548-2.1675073-2.5972603l2.8261416-16.9972602c.2569219-1.54520552 1.4847507-2.59726031 3.0312024-2.59726031zm5.449072 17.09589041 1.9843122-11.9342466c.0327985-.1972603-.1043855-.3616438-.3018048-.3616438h-4.507742c-.1316129 0-.3234611.1643835-.3562597.3616438l-1.9843121 11.9342466c-.0273322.1643836.1153183.2958904.2469312.2958904h4.5077419c.1974194 0 .3838012-.1315068.4111333-.2958904zm20.49593 5.0958904-4.4538919-12.1972603-2.0280435 12.1972603h-5.2645162l3.6898367-22.19178081h5.2645161l4.6129417 12.23013701 2.03351-12.23013701h5.2645161l-3.6898367 22.19178081zm9.4980646 0 3.6898367-22.19178081h14.5103226l-.7926316 4.76712331h-8.8180645l-.6450381 3.879452h7.6335483l-.7871651 4.7342466h-7.6335484l-.6669038 4.0109589h8.8180645l-.798098 4.8z"/></g></svg>