<?xml version="1.0" encoding="UTF-8"?>
<svg width="46px" height="46px" viewBox="0 0 46 46" version="1.1" xmlns="http://www.w3.org/2000/svg" xmlns:xlink="http://www.w3.org/1999/xlink">
    <!-- Generator: Sketch 51.2 (57519) - http://www.bohemiancoding.com/sketch -->
    <title>Group</title>
    <desc>Created with Sketch.</desc>
    <defs></defs>
    <g id="Page-1" stroke="none" stroke-width="1" fill="none" fill-rule="evenodd" stroke-linecap="round">
        <g id="Group" transform="translate(23.000000, 23.000000) scale(-1, 1) translate(-23.000000, -23.000000) translate(1.000000, 1.000000)" fill-rule="nonzero" stroke="#FFFFFF" stroke-width="2">
            <path d="M21.9446245,39 C31.3640483,39 39,31.3888407 39,22 C39,12.6111593 31.3640483,5 21.9446245,5 C13.2401873,5 6.05874698,11.4995537 5.01867664,19.8952831 M5,23.9479835 C5.15802599,25.3287286 5.48200451,26.6592428 5.95156373,27.9192205 M7.62392483,31.2366472 C7.8970135,31.6564416 8.18817637,32.063471 8.49631484,32.4566406 M11.2779558,35.2657698 C11.7452688,35.6395698 12.2327544,35.9893439 12.7385265,36.3132121" id="Oval"></path>
            <path d="M21.9283376,44 C34.1181802,44 44,34.1502645 44,22 C44,9.8497355 34.1181802,0 21.9283376,0 C10.6637718,0 1.37014315,8.41118717 0.0241697664,19.2762488 M0,24.5209199 C0.204504226,26.3077664 0.623770542,28.0296083 1.23143542,29.6601677 M3.39566743,33.9533082 C3.74907629,34.4965714 4.1258753,35.0233155 4.52464273,35.5321231 M8.12441337,39.1674668 C8.72917139,39.651208 9.3600351,40.1038568 10.0145636,40.5229803" id="Oval"></path>
        </g>
    </g>
</svg>